<?xml version="1.0" standalone="no"?>
<svg xmlns="http://www.w3.org/2000/svg" width="300" height="300" xmlns:xlink="http://www.w3.org/1999/xlink" viewBox="0 0 300 300"><defs><clipPath id="clip-path-background-color-0"><rect x="0" y="0" width="300" height="300"/></clipPath><clipPath id="clip-path-dot-color-0"><circle cx="86" cy="6" r="4" transform="rotate(0,86,6)"/><path d="M 98 2v 8h 4a 4 4, 0, 0, 0, 0 -8" transform="rotate(180,102,6)"/><rect x="106" y="2" width="8" height="8" transform="rotate(0,110,6)"/><path d="M 114 2v 8h 8v -4a 4 4, 0, 0, 0, -4 -4" transform="rotate(0,118,6)"/><path d="M 138 2v 8h 4a 4 4, 0, 0, 0, 0 -8" transform="rotate(-90,142,6)"/><path d="M 154 2v 8h 4a 4 4, 0, 0, 0, 0 -8" transform="rotate(180,158,6)"/><path d="M 162 2v 8h 8v -4a 4 4, 0, 0, 0, -4 -4" transform="rotate(0,166,6)"/><path d="M 178 2v 8h 4a 4 4, 0, 0, 0, 0 -8" transform="rotate(180,182,6)"/><path d="M 186 2v 8h 4a 4 4, 0, 0, 0, 0 -8" transform="rotate(0,190,6)"/><circle cx="214" cy="6" r="4" transform="rotate(0,214,6)"/><path d="M 66 10v 8h 4a 4 4, 0, 0, 0, 0 -8" transform="rotate(180,70,14)"/><path d="M 74 10v 8h 8v -4a 4 4, 0, 0, 0, -4 -4" transform="rotate(0,78,14)"/><circle cx="94" cy="14" r="4" transform="rotate(0,94,14)"/><path d="M 114 10v 8h 4a 4 4, 0, 0, 0, 0 -8" transform="rotate(90,118,14)"/><rect x="138" y="10" width="8" height="8" transform="rotate(0,142,14)"/><path d="M 162 10v 8h 4a 4 4, 0, 0, 0, 0 -8" transform="rotate(90,166,14)"/><path d="M 194 10v 8h 4a 4 4, 0, 0, 0, 0 -8" transform="rotate(-90,198,14)"/><path d="M 226 10v 8h 4a 4 4, 0, 0, 0, 0 -8" transform="rotate(-90,230,14)"/><rect x="74" y="18" width="8" height="8" transform="rotate(0,78,22)"/><path d="M 82 18v 8h 8v -4a 4 4, 0, 0, 0, -4 -4" transform="rotate(0,86,22)"/><circle cx="126" cy="22" r="4" transform="rotate(0,126,22)"/><rect x="138" y="18" width="8" height="8" transform="rotate(0,142,22)"/><path d="M 146 18v 8h 4a 4 4, 0, 0, 0, 0 -8" transform="rotate(0,150,22)"/><path d="M 170 18v 8h 4a 4 4, 0, 0, 0, 0 -8" transform="rotate(-90,174,22)"/><path d="M 186 18v 8h 8v -4a 4 4, 0, 0, 0, -4 -4" transform="rotate(-90,190,22)"/><rect x="194" y="18" width="8" height="8" transform="rotate(0,198,22)"/><path d="M 202 18v 8h 8v -4a 4 4, 0, 0, 0, -4 -4" transform="rotate(0,206,22)"/><rect x="226" y="18" width="8" height="8" transform="rotate(0,230,22)"/><path d="M 66 26v 8h 8v -4a 4 4, 0, 0, 0, -4 -4" transform="rotate(-90,70,30)"/><rect x="74" y="26" width="8" height="8" transform="rotate(0,78,30)"/><rect x="82" y="26" width="8" height="8" transform="rotate(0,86,30)"/><rect x="90" y="26" width="8" height="8" transform="rotate(0,94,30)"/><path d="M 98 26v 8h 8v -4a 4 4, 0, 0, 0, -4 -4" transform="rotate(0,102,30)"/><path d="M 130 26v 8h 4a 4 4, 0, 0, 0, 0 -8" transform="rotate(180,134,30)"/><rect x="138" y="26" width="8" height="8" transform="rotate(0,142,30)"/><path d="M 162 26v 8h 4a 4 4, 0, 0, 0, 0 -8" transform="rotate(180,166,30)"/><path d="M 170 26v 8h 8v -4a 4 4, 0, 0, 0, -4 -4" transform="rotate(90,174,30)"/><path d="M 186 26v 8h 4a 4 4, 0, 0, 0, 0 -8" transform="rotate(90,190,30)"/><path d="M 202 26v 8h 4a 4 4, 0, 0, 0, 0 -8" transform="rotate(90,206,30)"/><path d="M 218 26v 8h 4a 4 4, 0, 0, 0, 0 -8" transform="rotate(180,222,30)"/><path d="M 226 26v 8h 8v -4a 4 4, 0, 0, 0, -4 -4" transform="rotate(90,230,30)"/><path d="M 66 34v 8h 8v -4a 4 4, 0, 0, 0, -4 -4" transform="rotate(180,70,38)"/><rect x="74" y="34" width="8" height="8" transform="rotate(0,78,38)"/><path d="M 98 34v 8h 8v -4a 4 4, 0, 0, 0, -4 -4" transform="rotate(180,102,38)"/><path d="M 106 34v 8h 8v -4a 4 4, 0, 0, 0, -4 -4" transform="rotate(0,110,38)"/><circle cx="126" cy="38" r="4" transform="rotate(0,126,38)"/><path d="M 138 34v 8h 4a 4 4, 0, 0, 0, 0 -8" transform="rotate(90,142,38)"/><path d="M 154 34v 8h 4a 4 4, 0, 0, 0, 0 -8" transform="rotate(-90,158,38)"/><path d="M 178 34v 8h 4a 4 4, 0, 0, 0, 0 -8" transform="rotate(-90,182,38)"/><path d="M 210 34v 8h 4a 4 4, 0, 0, 0, 0 -8" transform="rotate(-90,214,38)"/><path d="M 74 42v 8h 8v -4a 4 4, 0, 0, 0, -4 -4" transform="rotate(180,78,46)"/><rect x="82" y="42" width="8" height="8" transform="rotate(0,86,46)"/><path d="M 90 42v 8h 4a 4 4, 0, 0, 0, 0 -8" transform="rotate(0,94,46)"/><path d="M 106 42v 8h 4a 4 4, 0, 0, 0, 0 -8" transform="rotate(90,110,46)"/><path d="M 146 42v 8h 8v -4a 4 4, 0, 0, 0, -4 -4" transform="rotate(-90,150,46)"/><path d="M 154 42v 8h 8v -4a 4 4, 0, 0, 0, -4 -4" transform="rotate(90,158,46)"/><rect x="178" y="42" width="8" height="8" transform="rotate(0,182,46)"/><path d="M 186 42v 8h 4a 4 4, 0, 0, 0, 0 -8" transform="rotate(0,190,46)"/><rect x="210" y="42" width="8" height="8" transform="rotate(0,214,46)"/><path d="M 66 50v 8h 4a 4 4, 0, 0, 0, 0 -8" transform="rotate(-90,70,54)"/><rect x="82" y="50" width="8" height="8" transform="rotate(0,86,54)"/><circle cx="102" cy="54" r="4" transform="rotate(0,102,54)"/><circle cx="118" cy="54" r="4" transform="rotate(0,118,54)"/><circle cx="134" cy="54" r="4" transform="rotate(0,134,54)"/><rect x="146" y="50" width="8" height="8" transform="rotate(0,150,54)"/><path d="M 162 50v 8h 4a 4 4, 0, 0, 0, 0 -8" transform="rotate(-90,166,54)"/><rect x="178" y="50" width="8" height="8" transform="rotate(0,182,54)"/><circle cx="198" cy="54" r="4" transform="rotate(0,198,54)"/><rect x="210" y="50" width="8" height="8" transform="rotate(0,214,54)"/><path d="M 226 50v 8h 4a 4 4, 0, 0, 0, 0 -8" transform="rotate(-90,230,54)"/><rect x="66" y="58" width="8" height="8" transform="rotate(0,70,62)"/><path d="M 82 58v 8h 8v -4a 4 4, 0, 0, 0, -4 -4" transform="rotate(180,86,62)"/><path d="M 90 58v 8h 8v -4a 4 4, 0, 0, 0, -4 -4" transform="rotate(0,94,62)"/><path d="M 122 58v 8h 4a 4 4, 0, 0, 0, 0 -8" transform="rotate(-90,126,62)"/><rect x="146" y="58" width="8" height="8" transform="rotate(0,150,62)"/><rect x="154" y="58" width="8" height="8" transform="rotate(0,158,62)"/><rect x="162" y="58" width="8" height="8" transform="rotate(0,166,62)"/><path d="M 178 58v 8h 8v -4a 4 4, 0, 0, 0, -4 -4" transform="rotate(180,182,62)"/><path d="M 186 58v 8h 8v -4a 4 4, 0, 0, 0, -4 -4" transform="rotate(0,190,62)"/><path d="M 202 58v 8h 4a 4 4, 0, 0, 0, 0 -8" transform="rotate(180,206,62)"/><rect x="210" y="58" width="8" height="8" transform="rotate(0,214,62)"/><rect x="218" y="58" width="8" height="8" transform="rotate(0,222,62)"/><rect x="226" y="58" width="8" height="8" transform="rotate(0,230,62)"/><circle cx="14" cy="70" r="4" transform="rotate(0,14,70)"/><path d="M 26 66v 8h 8v -4a 4 4, 0, 0, 0, -4 -4" transform="rotate(-90,30,70)"/><rect x="34" y="66" width="8" height="8" transform="rotate(0,38,70)"/><rect x="42" y="66" width="8" height="8" transform="rotate(0,46,70)"/><path d="M 50 66v 8h 4a 4 4, 0, 0, 0, 0 -8" transform="rotate(0,54,70)"/><rect x="66" y="66" width="8" height="8" transform="rotate(0,70,70)"/><path d="M 74 66v 8h 8v -4a 4 4, 0, 0, 0, -4 -4" transform="rotate(0,78,70)"/><path d="M 90 66v 8h 4a 4 4, 0, 0, 0, 0 -8" transform="rotate(90,94,70)"/><rect x="122" y="66" width="8" height="8" transform="rotate(0,126,70)"/><path d="M 130 66v 8h 4a 4 4, 0, 0, 0, 0 -8" transform="rotate(0,134,70)"/><rect x="146" y="66" width="8" height="8" transform="rotate(0,150,70)"/><path d="M 162 66v 8h 4a 4 4, 0, 0, 0, 0 -8" transform="rotate(90,166,70)"/><rect x="186" y="66" width="8" height="8" transform="rotate(0,190,70)"/><path d="M 194 66v 8h 4a 4 4, 0, 0, 0, 0 -8" transform="rotate(0,198,70)"/><path d="M 226 66v 8h 8v -4a 4 4, 0, 0, 0, -4 -4" transform="rotate(180,230,70)"/><rect x="234" y="66" width="8" height="8" transform="rotate(0,238,70)"/><path d="M 242 66v 8h 4a 4 4, 0, 0, 0, 0 -8" transform="rotate(0,246,70)"/><path d="M 258 66v 8h 8v -4a 4 4, 0, 0, 0, -4 -4" transform="rotate(-90,262,70)"/><path d="M 266 66v 8h 4a 4 4, 0, 0, 0, 0 -8" transform="rotate(0,270,70)"/><circle cx="286" cy="70" r="4" transform="rotate(0,286,70)"/><path d="M 2 74v 8h 4a 4 4, 0, 0, 0, 0 -8" transform="rotate(-90,6,78)"/><path d="M 18 74v 8h 4a 4 4, 0, 0, 0, 0 -8" transform="rotate(180,22,78)"/><rect x="26" y="74" width="8" height="8" transform="rotate(0,30,78)"/><path d="M 42 74v 8h 4a 4 4, 0, 0, 0, 0 -8" transform="rotate(90,46,78)"/><path d="M 58 74v 8h 8v -4a 4 4, 0, 0, 0, -4 -4" transform="rotate(-90,62,78)"/><rect x="66" y="74" width="8" height="8" transform="rotate(0,70,78)"/><path d="M 74 74v 8h 8v -4a 4 4, 0, 0, 0, -4 -4" transform="rotate(90,78,78)"/><path d="M 106 74v 8h 4a 4 4, 0, 0, 0, 0 -8" transform="rotate(180,110,78)"/><rect x="114" y="74" width="8" height="8" transform="rotate(0,118,78)"/><path d="M 122 74v 8h 8v -4a 4 4, 0, 0, 0, -4 -4" transform="rotate(90,126,78)"/><path d="M 138 74v 8h 4a 4 4, 0, 0, 0, 0 -8" transform="rotate(180,142,78)"/><path d="M 146 74v 8h 8v -4a 4 4, 0, 0, 0, -4 -4" transform="rotate(90,150,78)"/><path d="M 178 74v 8h 4a 4 4, 0, 0, 0, 0 -8" transform="rotate(180,182,78)"/><rect x="186" y="74" width="8" height="8" transform="rotate(0,190,78)"/><path d="M 202 74v 8h 4a 4 4, 0, 0, 0, 0 -8" transform="rotate(-90,206,78)"/><path d="M 218 74v 8h 4a 4 4, 0, 0, 0, 0 -8" transform="rotate(-90,222,78)"/><rect x="234" y="74" width="8" height="8" transform="rotate(0,238,78)"/><path d="M 250 74v 8h 8v -4a 4 4, 0, 0, 0, -4 -4" transform="rotate(-90,254,78)"/><path d="M 258 74v 8h 8v -4a 4 4, 0, 0, 0, -4 -4" transform="rotate(90,262,78)"/><path d="M 274 74v 8h 4a 4 4, 0, 0, 0, 0 -8" transform="rotate(-90,278,78)"/><path d="M 2 82v 8h 4a 4 4, 0, 0, 0, 0 -8" transform="rotate(90,6,86)"/><rect x="26" y="82" width="8" height="8" transform="rotate(0,30,86)"/><path d="M 34 82v 8h 8v -4a 4 4, 0, 0, 0, -4 -4" transform="rotate(0,38,86)"/><path d="M 50 82v 8h 4a 4 4, 0, 0, 0, 0 -8" transform="rotate(180,54,86)"/><rect x="58" y="82" width="8" height="8" transform="rotate(0,62,86)"/><rect x="66" y="82" width="8" height="8" transform="rotate(0,70,86)"/><path d="M 82 82v 8h 4a 4 4, 0, 0, 0, 0 -8" transform="rotate(180,86,86)"/><rect x="90" y="82" width="8" height="8" transform="rotate(0,94,86)"/><path d="M 98 82v 8h 8v -4a 4 4, 0, 0, 0, -4 -4" transform="rotate(0,102,86)"/><path d="M 130 82v 8h 4a 4 4, 0, 0, 0, 0 -8" transform="rotate(-90,134,86)"/><circle cx="174" cy="86" r="4" transform="rotate(0,174,86)"/><rect x="186" y="82" width="8" height="8" transform="rotate(0,190,86)"/><rect x="194" y="82" width="8" height="8" transform="rotate(0,198,86)"/><path d="M 202 82v 8h 8v -4a 4 4, 0, 0, 0, -4 -4" transform="rotate(90,206,86)"/><path d="M 218 82v 8h 8v -4a 4 4, 0, 0, 0, -4 -4" transform="rotate(180,222,86)"/><rect x="226" y="82" width="8" height="8" transform="rotate(0,230,86)"/><rect x="234" y="82" width="8" height="8" transform="rotate(0,238,86)"/><rect x="242" y="82" width="8" height="8" transform="rotate(0,246,86)"/><rect x="250" y="82" width="8" height="8" transform="rotate(0,254,86)"/><rect x="274" y="82" width="8" height="8" transform="rotate(0,278,86)"/><path d="M 290 82v 8h 4a 4 4, 0, 0, 0, 0 -8" transform="rotate(-90,294,86)"/><rect x="26" y="90" width="8" height="8" transform="rotate(0,30,94)"/><rect x="34" y="90" width="8" height="8" transform="rotate(0,38,94)"/><path d="M 42 90v 8h 4a 4 4, 0, 0, 0, 0 -8" transform="rotate(0,46,94)"/><path d="M 66 90v 8h 8v -4a 4 4, 0, 0, 0, -4 -4" transform="rotate(180,70,94)"/><path d="M 74 90v 8h 4a 4 4, 0, 0, 0, 0 -8" transform="rotate(0,78,94)"/><path d="M 98 90v 8h 8v -4a 4 4, 0, 0, 0, -4 -4" transform="rotate(180,102,94)"/><path d="M 106 90v 8h 8v -4a 4 4, 0, 0, 0, -4 -4" transform="rotate(0,110,94)"/><path d="M 122 90v 8h 8v -4a 4 4, 0, 0, 0, -4 -4" transform="rotate(-90,126,94)"/><rect x="130" y="90" width="8" height="8" transform="rotate(0,134,94)"/><rect x="138" y="90" width="8" height="8" transform="rotate(0,142,94)"/><path d="M 146 90v 8h 8v -4a 4 4, 0, 0, 0, -4 -4" transform="rotate(0,150,94)"/><path d="M 162 90v 8h 4a 4 4, 0, 0, 0, 0 -8" transform="rotate(-90,166,94)"/><rect x="186" y="90" width="8" height="8" transform="rotate(0,190,94)"/><circle cx="214" cy="94" r="4" transform="rotate(0,214,94)"/><rect x="226" y="90" width="8" height="8" transform="rotate(0,230,94)"/><rect x="234" y="90" width="8" height="8" transform="rotate(0,238,94)"/><rect x="242" y="90" width="8" height="8" transform="rotate(0,246,94)"/><rect x="250" y="90" width="8" height="8" transform="rotate(0,254,94)"/><rect x="258" y="90" width="8" height="8" transform="rotate(0,262,94)"/><rect x="266" y="90" width="8" height="8" transform="rotate(0,270,94)"/><rect x="274" y="90" width="8" height="8" transform="rotate(0,278,94)"/><rect x="282" y="90" width="8" height="8" transform="rotate(0,286,94)"/><path d="M 290 90v 8h 8v -4a 4 4, 0, 0, 0, -4 -4" transform="rotate(90,294,94)"/><path d="M 10 98v 8h 4a 4 4, 0, 0, 0, 0 -8" transform="rotate(180,14,102)"/><rect x="18" y="98" width="8" height="8" transform="rotate(0,22,102)"/><rect x="26" y="98" width="8" height="8" transform="rotate(0,30,102)"/><path d="M 34 98v 8h 8v -4a 4 4, 0, 0, 0, -4 -4" transform="rotate(90,38,102)"/><path d="M 50 98v 8h 4a 4 4, 0, 0, 0, 0 -8" transform="rotate(180,54,102)"/><path d="M 58 98v 8h 4a 4 4, 0, 0, 0, 0 -8" transform="rotate(0,62,102)"/><path d="M 82 98v 8h 4a 4 4, 0, 0, 0, 0 -8" transform="rotate(-90,86,102)"/><path d="M 106 98v 8h 4a 4 4, 0, 0, 0, 0 -8" transform="rotate(90,110,102)"/><path d="M 122 98v 8h 8v -4a 4 4, 0, 0, 0, -4 -4" transform="rotate(180,126,102)"/><path d="M 130 98v 8h 8v -4a 4 4, 0, 0, 0, -4 -4" transform="rotate(90,134,102)"/><path d="M 146 98v 8h 4a 4 4, 0, 0, 0, 0 -8" transform="rotate(90,150,102)"/><path d="M 162 98v 8h 4a 4 4, 0, 0, 0, 0 -8" transform="rotate(90,166,102)"/><rect x="186" y="98" width="8" height="8" transform="rotate(0,190,102)"/><path d="M 194 98v 8h 4a 4 4, 0, 0, 0, 0 -8" transform="rotate(0,198,102)"/><path d="M 226 98v 8h 4a 4 4, 0, 0, 0, 0 -8" transform="rotate(90,230,102)"/><path d="M 242 98v 8h 4a 4 4, 0, 0, 0, 0 -8" transform="rotate(90,246,102)"/><path d="M 266 98v 8h 4a 4 4, 0, 0, 0, 0 -8" transform="rotate(90,270,102)"/><path d="M 18 106v 8h 4a 4 4, 0, 0, 0, 0 -8" transform="rotate(90,22,110)"/><path d="M 74 106v 8h 4a 4 4, 0, 0, 0, 0 -8" transform="rotate(180,78,110)"/><path d="M 82 106v 8h 8v -4a 4 4, 0, 0, 0, -4 -4" transform="rotate(90,86,110)"/><path d="M 98 106v 8h 4a 4 4, 0, 0, 0, 0 -8" transform="rotate(-90,102,110)"/><path d="M 138 106v 8h 4a 4 4, 0, 0, 0, 0 -8" transform="rotate(-90,142,110)"/><path d="M 154 106v 8h 4a 4 4, 0, 0, 0, 0 -8" transform="rotate(-90,158,110)"/><path d="M 178 106v 8h 4a 4 4, 0, 0, 0, 0 -8" transform="rotate(180,182,110)"/><path d="M 186 106v 8h 8v -4a 4 4, 0, 0, 0, -4 -4" transform="rotate(90,190,110)"/><path d="M 202 106v 8h 8v -4a 4 4, 0, 0, 0, -4 -4" transform="rotate(-90,206,110)"/><rect x="210" y="106" width="8" height="8" transform="rotate(0,214,110)"/><path d="M 218 106v 8h 8v -4a 4 4, 0, 0, 0, -4 -4" transform="rotate(0,222,110)"/><circle cx="238" cy="110" r="4" transform="rotate(0,238,110)"/><circle cx="262" cy="110" r="4" transform="rotate(0,262,110)"/><path d="M 274 106v 8h 8v -4a 4 4, 0, 0, 0, -4 -4" transform="rotate(-90,278,110)"/><path d="M 282 106v 8h 8v -4a 4 4, 0, 0, 0, -4 -4" transform="rotate(0,286,110)"/><path d="M 2 114v 8h 4a 4 4, 0, 0, 0, 0 -8" transform="rotate(180,6,118)"/><path d="M 10 114v 8h 4a 4 4, 0, 0, 0, 0 -8" transform="rotate(0,14,118)"/><circle cx="30" cy="118" r="4" transform="rotate(0,30,118)"/><path d="M 50 114v 8h 4a 4 4, 0, 0, 0, 0 -8" transform="rotate(180,54,118)"/><rect x="58" y="114" width="8" height="8" transform="rotate(0,62,118)"/><path d="M 66 114v 8h 4a 4 4, 0, 0, 0, 0 -8" transform="rotate(0,70,118)"/><path d="M 90 114v 8h 8v -4a 4 4, 0, 0, 0, -4 -4" transform="rotate(-90,94,118)"/><rect x="98" y="114" width="8" height="8" transform="rotate(0,102,118)"/><path d="M 114 114v 8h 8v -4a 4 4, 0, 0, 0, -4 -4" transform="rotate(-90,118,118)"/><rect x="122" y="114" width="8" height="8" transform="rotate(0,126,118)"/><rect x="130" y="114" width="8" height="8" transform="rotate(0,134,118)"/><rect x="138" y="114" width="8" height="8" transform="rotate(0,142,118)"/><rect x="146" y="114" width="8" height="8" transform="rotate(0,150,118)"/><path d="M 154 114v 8h 8v -4a 4 4, 0, 0, 0, -4 -4" transform="rotate(90,158,118)"/><circle cx="174" cy="118" r="4" transform="rotate(0,174,118)"/><path d="M 202 114v 8h 8v -4a 4 4, 0, 0, 0, -4 -4" transform="rotate(180,206,118)"/><rect x="210" y="114" width="8" height="8" transform="rotate(0,214,118)"/><rect x="218" y="114" width="8" height="8" transform="rotate(0,222,118)"/><path d="M 226 114v 8h 4a 4 4, 0, 0, 0, 0 -8" transform="rotate(0,230,118)"/><circle cx="246" cy="118" r="4" transform="rotate(0,246,118)"/><path d="M 266 114v 8h 8v -4a 4 4, 0, 0, 0, -4 -4" transform="rotate(-90,270,118)"/><rect x="274" y="114" width="8" height="8" transform="rotate(0,278,118)"/><rect x="282" y="114" width="8" height="8" transform="rotate(0,286,118)"/><path d="M 290 114v 8h 8v -4a 4 4, 0, 0, 0, -4 -4" transform="rotate(0,294,118)"/><circle cx="22" cy="126" r="4" transform="rotate(0,22,126)"/><path d="M 34 122v 8h 4a 4 4, 0, 0, 0, 0 -8" transform="rotate(180,38,126)"/><path d="M 42 122v 8h 4a 4 4, 0, 0, 0, 0 -8" transform="rotate(0,46,126)"/><rect x="58" y="122" width="8" height="8" transform="rotate(0,62,126)"/><path d="M 90 122v 8h 8v -4a 4 4, 0, 0, 0, -4 -4" transform="rotate(180,94,126)"/><path d="M 98 122v 8h 8v -4a 4 4, 0, 0, 0, -4 -4" transform="rotate(90,102,126)"/><path d="M 114 122v 8h 8v -4a 4 4, 0, 0, 0, -4 -4" transform="rotate(180,118,126)"/><rect x="122" y="122" width="8" height="8" transform="rotate(0,126,126)"/><path d="M 162 122v 8h 4a 4 4, 0, 0, 0, 0 -8" transform="rotate(-90,166,126)"/><path d="M 178 122v 8h 8v -4a 4 4, 0, 0, 0, -4 -4" transform="rotate(-90,182,126)"/><path d="M 186 122v 8h 8v -4a 4 4, 0, 0, 0, -4 -4" transform="rotate(0,190,126)"/><path d="M 250 122v 8h 8v -4a 4 4, 0, 0, 0, -4 -4" transform="rotate(-90,254,126)"/><rect x="258" y="122" width="8" height="8" transform="rotate(0,262,126)"/><rect x="266" y="122" width="8" height="8" transform="rotate(0,270,126)"/><rect x="274" y="122" width="8" height="8" transform="rotate(0,278,126)"/><path d="M 290 122v 8h 4a 4 4, 0, 0, 0, 0 -8" transform="rotate(90,294,126)"/><path d="M 50 130v 8h 4a 4 4, 0, 0, 0, 0 -8" transform="rotate(180,54,134)"/><rect x="58" y="130" width="8" height="8" transform="rotate(0,62,134)"/><path d="M 74 130v 8h 4a 4 4, 0, 0, 0, 0 -8" transform="rotate(180,78,134)"/><path d="M 82 130v 8h 4a 4 4, 0, 0, 0, 0 -8" transform="rotate(0,86,134)"/><path d="M 106 130v 8h 4a 4 4, 0, 0, 0, 0 -8" transform="rotate(-90,110,134)"/><path d="M 122 130v 8h 4a 4 4, 0, 0, 0, 0 -8" transform="rotate(90,126,134)"/><path d="M 146 130v 8h 4a 4 4, 0, 0, 0, 0 -8" transform="rotate(-90,150,134)"/><path d="M 162 130v 8h 4a 4 4, 0, 0, 0, 0 -8" transform="rotate(90,166,134)"/><path d="M 178 130v 8h 8v -4a 4 4, 0, 0, 0, -4 -4" transform="rotate(180,182,134)"/><rect x="186" y="130" width="8" height="8" transform="rotate(0,190,134)"/><rect x="194" y="130" width="8" height="8" transform="rotate(0,198,134)"/><path d="M 202 130v 8h 4a 4 4, 0, 0, 0, 0 -8" transform="rotate(0,206,134)"/><path d="M 242 130v 8h 4a 4 4, 0, 0, 0, 0 -8" transform="rotate(180,246,134)"/><rect x="250" y="130" width="8" height="8" transform="rotate(0,254,134)"/><rect x="274" y="130" width="8" height="8" transform="rotate(0,278,134)"/><path d="M 18 138v 8h 4a 4 4, 0, 0, 0, 0 -8" transform="rotate(-90,22,142)"/><path d="M 42 138v 8h 4a 4 4, 0, 0, 0, 0 -8" transform="rotate(-90,46,142)"/><rect x="58" y="138" width="8" height="8" transform="rotate(0,62,142)"/><path d="M 90 138v 8h 4a 4 4, 0, 0, 0, 0 -8" transform="rotate(-90,94,142)"/><rect x="106" y="138" width="8" height="8" transform="rotate(0,110,142)"/><path d="M 130 138v 8h 4a 4 4, 0, 0, 0, 0 -8" transform="rotate(-90,134,142)"/><rect x="146" y="138" width="8" height="8" transform="rotate(0,150,142)"/><rect x="186" y="138" width="8" height="8" transform="rotate(0,190,142)"/><path d="M 210 138v 8h 8v -4a 4 4, 0, 0, 0, -4 -4" transform="rotate(-90,214,142)"/><path d="M 218 138v 8h 8v -4a 4 4, 0, 0, 0, -4 -4" transform="rotate(0,222,142)"/><path d="M 234 138v 8h 4a 4 4, 0, 0, 0, 0 -8" transform="rotate(-90,238,142)"/><rect x="250" y="138" width="8" height="8" transform="rotate(0,254,142)"/><path d="M 274 138v 8h 8v -4a 4 4, 0, 0, 0, -4 -4" transform="rotate(180,278,142)"/><path d="M 282 138v 8h 4a 4 4, 0, 0, 0, 0 -8" transform="rotate(0,286,142)"/><circle cx="6" cy="150" r="4" transform="rotate(0,6,150)"/><rect x="18" y="146" width="8" height="8" transform="rotate(0,22,150)"/><path d="M 34 146v 8h 4a 4 4, 0, 0, 0, 0 -8" transform="rotate(180,38,150)"/><rect x="42" y="146" width="8" height="8" transform="rotate(0,46,150)"/><rect x="50" y="146" width="8" height="8" transform="rotate(0,54,150)"/><rect x="58" y="146" width="8" height="8" transform="rotate(0,62,150)"/><path d="M 66 146v 8h 8v -4a 4 4, 0, 0, 0, -4 -4" transform="rotate(0,70,150)"/><rect x="90" y="146" width="8" height="8" transform="rotate(0,94,150)"/><rect x="98" y="146" width="8" height="8" transform="rotate(0,102,150)"/><rect x="106" y="146" width="8" height="8" transform="rotate(0,110,150)"/><path d="M 130 146v 8h 4a 4 4, 0, 0, 0, 0 -8" transform="rotate(90,134,150)"/><path d="M 146 146v 8h 4a 4 4, 0, 0, 0, 0 -8" transform="rotate(90,150,150)"/><path d="M 162 146v 8h 8v -4a 4 4, 0, 0, 0, -4 -4" transform="rotate(-90,166,150)"/><path d="M 170 146v 8h 4a 4 4, 0, 0, 0, 0 -8" transform="rotate(0,174,150)"/><rect x="186" y="146" width="8" height="8" transform="rotate(0,190,150)"/><path d="M 194 146v 8h 8v -4a 4 4, 0, 0, 0, -4 -4" transform="rotate(0,198,150)"/><path d="M 210 146v 8h 8v -4a 4 4, 0, 0, 0, -4 -4" transform="rotate(180,214,150)"/><rect x="218" y="146" width="8" height="8" transform="rotate(0,222,150)"/><path d="M 234 146v 8h 8v -4a 4 4, 0, 0, 0, -4 -4" transform="rotate(180,238,150)"/><rect x="242" y="146" width="8" height="8" transform="rotate(0,246,150)"/><rect x="250" y="146" width="8" height="8" transform="rotate(0,254,150)"/><rect x="258" y="146" width="8" height="8" transform="rotate(0,262,150)"/><path d="M 266 146v 8h 8v -4a 4 4, 0, 0, 0, -4 -4" transform="rotate(0,270,150)"/><path d="M 290 146v 8h 4a 4 4, 0, 0, 0, 0 -8" transform="rotate(-90,294,150)"/><path d="M 10 154v 8h 8v -4a 4 4, 0, 0, 0, -4 -4" transform="rotate(-90,14,158)"/><rect x="18" y="154" width="8" height="8" transform="rotate(0,22,158)"/><rect x="42" y="154" width="8" height="8" transform="rotate(0,46,158)"/><path d="M 66 154v 8h 8v -4a 4 4, 0, 0, 0, -4 -4" transform="rotate(180,70,158)"/><rect x="74" y="154" width="8" height="8" transform="rotate(0,78,158)"/><rect x="82" y="154" width="8" height="8" transform="rotate(0,86,158)"/><rect x="90" y="154" width="8" height="8" transform="rotate(0,94,158)"/><rect x="98" y="154" width="8" height="8" transform="rotate(0,102,158)"/><path d="M 106 154v 8h 8v -4a 4 4, 0, 0, 0, -4 -4" transform="rotate(90,110,158)"/><path d="M 122 154v 8h 4a 4 4, 0, 0, 0, 0 -8" transform="rotate(-90,126,158)"/><path d="M 162 154v 8h 4a 4 4, 0, 0, 0, 0 -8" transform="rotate(90,166,158)"/><path d="M 186 154v 8h 8v -4a 4 4, 0, 0, 0, -4 -4" transform="rotate(180,190,158)"/><rect x="194" y="154" width="8" height="8" transform="rotate(0,198,158)"/><path d="M 202 154v 8h 4a 4 4, 0, 0, 0, 0 -8" transform="rotate(0,206,158)"/><rect x="218" y="154" width="8" height="8" transform="rotate(0,222,158)"/><rect x="258" y="154" width="8" height="8" transform="rotate(0,262,158)"/><path d="M 266 154v 8h 8v -4a 4 4, 0, 0, 0, -4 -4" transform="rotate(90,270,158)"/><path d="M 290 154v 8h 4a 4 4, 0, 0, 0, 0 -8" transform="rotate(90,294,158)"/><path d="M 10 162v 8h 8v -4a 4 4, 0, 0, 0, -4 -4" transform="rotate(180,14,166)"/><path d="M 18 162v 8h 8v -4a 4 4, 0, 0, 0, -4 -4" transform="rotate(90,22,166)"/><rect x="42" y="162" width="8" height="8" transform="rotate(0,46,166)"/><rect x="50" y="162" width="8" height="8" transform="rotate(0,54,166)"/><path d="M 58 162v 8h 4a 4 4, 0, 0, 0, 0 -8" transform="rotate(0,62,166)"/><rect x="74" y="162" width="8" height="8" transform="rotate(0,78,166)"/><path d="M 98 162v 8h 4a 4 4, 0, 0, 0, 0 -8" transform="rotate(90,102,166)"/><path d="M 114 162v 8h 8v -4a 4 4, 0, 0, 0, -4 -4" transform="rotate(-90,118,166)"/><rect x="122" y="162" width="8" height="8" transform="rotate(0,126,166)"/><rect x="130" y="162" width="8" height="8" transform="rotate(0,134,166)"/><rect x="138" y="162" width="8" height="8" transform="rotate(0,142,166)"/><path d="M 146 162v 8h 4a 4 4, 0, 0, 0, 0 -8" transform="rotate(0,150,166)"/><rect x="194" y="162" width="8" height="8" transform="rotate(0,198,166)"/><path d="M 210 162v 8h 8v -4a 4 4, 0, 0, 0, -4 -4" transform="rotate(-90,214,166)"/><rect x="218" y="162" width="8" height="8" transform="rotate(0,222,166)"/><rect x="226" y="162" width="8" height="8" transform="rotate(0,230,166)"/><rect x="234" y="162" width="8" height="8" transform="rotate(0,238,166)"/><path d="M 242 162v 8h 4a 4 4, 0, 0, 0, 0 -8" transform="rotate(0,246,166)"/><rect x="258" y="162" width="8" height="8" transform="rotate(0,262,166)"/><circle cx="286" cy="166" r="4" transform="rotate(0,286,166)"/><path d="M 2 170v 8h 4a 4 4, 0, 0, 0, 0 -8" transform="rotate(-90,6,174)"/><rect x="42" y="170" width="8" height="8" transform="rotate(0,46,174)"/><path d="M 74 170v 8h 8v -4a 4 4, 0, 0, 0, -4 -4" transform="rotate(180,78,174)"/><path d="M 82 170v 8h 8v -4a 4 4, 0, 0, 0, -4 -4" transform="rotate(0,86,174)"/><path d="M 114 170v 8h 4a 4 4, 0, 0, 0, 0 -8" transform="rotate(90,118,174)"/><path d="M 130 170v 8h 8v -4a 4 4, 0, 0, 0, -4 -4" transform="rotate(180,134,174)"/><path d="M 138 170v 8h 8v -4a 4 4, 0, 0, 0, -4 -4" transform="rotate(90,142,174)"/><circle cx="166" cy="174" r="4" transform="rotate(0,166,174)"/><path d="M 178 170v 8h 8v -4a 4 4, 0, 0, 0, -4 -4" transform="rotate(-90,182,174)"/><rect x="186" y="170" width="8" height="8" transform="rotate(0,190,174)"/><rect x="194" y="170" width="8" height="8" transform="rotate(0,198,174)"/><rect x="202" y="170" width="8" height="8" transform="rotate(0,206,174)"/><rect x="210" y="170" width="8" height="8" transform="rotate(0,214,174)"/><rect x="218" y="170" width="8" height="8" transform="rotate(0,222,174)"/><path d="M 226 170v 8h 8v -4a 4 4, 0, 0, 0, -4 -4" transform="rotate(90,230,174)"/><path d="M 250 170v 8h 4a 4 4, 0, 0, 0, 0 -8" transform="rotate(180,254,174)"/><rect x="258" y="170" width="8" height="8" transform="rotate(0,262,174)"/><circle cx="278" cy="174" r="4" transform="rotate(0,278,174)"/><rect x="2" y="178" width="8" height="8" transform="rotate(0,6,182)"/><rect x="10" y="178" width="8" height="8" transform="rotate(0,14,182)"/><path d="M 18 178v 8h 4a 4 4, 0, 0, 0, 0 -8" transform="rotate(0,22,182)"/><path d="M 42 178v 8h 8v -4a 4 4, 0, 0, 0, -4 -4" transform="rotate(180,46,182)"/><rect x="50" y="178" width="8" height="8" transform="rotate(0,54,182)"/><path d="M 58 178v 8h 8v -4a 4 4, 0, 0, 0, -4 -4" transform="rotate(0,62,182)"/><rect x="82" y="178" width="8" height="8" transform="rotate(0,86,182)"/><circle cx="102" cy="182" r="4" transform="rotate(0,102,182)"/><path d="M 146 178v 8h 4a 4 4, 0, 0, 0, 0 -8" transform="rotate(180,150,182)"/><path d="M 154 178v 8h 8v -4a 4 4, 0, 0, 0, -4 -4" transform="rotate(0,158,182)"/><path d="M 178 178v 8h 8v -4a 4 4, 0, 0, 0, -4 -4" transform="rotate(180,182,182)"/><rect x="186" y="178" width="8" height="8" transform="rotate(0,190,182)"/><rect x="218" y="178" width="8" height="8" transform="rotate(0,222,182)"/><path d="M 234 178v 8h 4a 4 4, 0, 0, 0, 0 -8" transform="rotate(180,238,182)"/><path d="M 242 178v 8h 8v -4a 4 4, 0, 0, 0, -4 -4" transform="rotate(0,246,182)"/><path d="M 258 178v 8h 4a 4 4, 0, 0, 0, 0 -8" transform="rotate(90,262,182)"/><circle cx="294" cy="182" r="4" transform="rotate(0,294,182)"/><rect x="2" y="186" width="8" height="8" transform="rotate(0,6,190)"/><path d="M 26 186v 8h 4a 4 4, 0, 0, 0, 0 -8" transform="rotate(-90,30,190)"/><rect x="58" y="186" width="8" height="8" transform="rotate(0,62,190)"/><path d="M 66 186v 8h 8v -4a 4 4, 0, 0, 0, -4 -4" transform="rotate(0,70,190)"/><rect x="82" y="186" width="8" height="8" transform="rotate(0,86,190)"/><path d="M 90 186v 8h 8v -4a 4 4, 0, 0, 0, -4 -4" transform="rotate(0,94,190)"/><path d="M 114 186v 8h 8v -4a 4 4, 0, 0, 0, -4 -4" transform="rotate(-90,118,190)"/><rect x="122" y="186" width="8" height="8" transform="rotate(0,126,190)"/><rect x="130" y="186" width="8" height="8" transform="rotate(0,134,190)"/><path d="M 138 186v 8h 4a 4 4, 0, 0, 0, 0 -8" transform="rotate(0,142,190)"/><rect x="154" y="186" width="8" height="8" transform="rotate(0,158,190)"/><path d="M 186 186v 8h 4a 4 4, 0, 0, 0, 0 -8" transform="rotate(90,190,190)"/><path d="M 210 186v 8h 4a 4 4, 0, 0, 0, 0 -8" transform="rotate(180,214,190)"/><rect x="218" y="186" width="8" height="8" transform="rotate(0,222,190)"/><path d="M 226 186v 8h 8v -4a 4 4, 0, 0, 0, -4 -4" transform="rotate(0,230,190)"/><rect x="242" y="186" width="8" height="8" transform="rotate(0,246,190)"/><path d="M 250 186v 8h 4a 4 4, 0, 0, 0, 0 -8" transform="rotate(0,254,190)"/><path d="M 266 186v 8h 4a 4 4, 0, 0, 0, 0 -8" transform="rotate(180,270,190)"/><path d="M 274 186v 8h 4a 4 4, 0, 0, 0, 0 -8" transform="rotate(0,278,190)"/><rect x="2" y="194" width="8" height="8" transform="rotate(0,6,198)"/><path d="M 18 194v 8h 8v -4a 4 4, 0, 0, 0, -4 -4" transform="rotate(-90,22,198)"/><rect x="26" y="194" width="8" height="8" transform="rotate(0,30,198)"/><path d="M 50 194v 8h 4a 4 4, 0, 0, 0, 0 -8" transform="rotate(180,54,198)"/><rect x="58" y="194" width="8" height="8" transform="rotate(0,62,198)"/><rect x="66" y="194" width="8" height="8" transform="rotate(0,70,198)"/><rect x="74" y="194" width="8" height="8" transform="rotate(0,78,198)"/><rect x="82" y="194" width="8" height="8" transform="rotate(0,86,198)"/><rect x="90" y="194" width="8" height="8" transform="rotate(0,94,198)"/><path d="M 98 194v 8h 4a 4 4, 0, 0, 0, 0 -8" transform="rotate(0,102,198)"/><rect x="114" y="194" width="8" height="8" transform="rotate(0,118,198)"/><rect x="122" y="194" width="8" height="8" transform="rotate(0,126,198)"/><path d="M 130 194v 8h 8v -4a 4 4, 0, 0, 0, -4 -4" transform="rotate(90,134,198)"/><path d="M 146 194v 8h 4a 4 4, 0, 0, 0, 0 -8" transform="rotate(180,150,198)"/><rect x="154" y="194" width="8" height="8" transform="rotate(0,158,198)"/><path d="M 162 194v 8h 8v -4a 4 4, 0, 0, 0, -4 -4" transform="rotate(0,166,198)"/><path d="M 194 194v 8h 4a 4 4, 0, 0, 0, 0 -8" transform="rotate(180,198,198)"/><path d="M 202 194v 8h 8v -4a 4 4, 0, 0, 0, -4 -4" transform="rotate(0,206,198)"/><rect x="226" y="194" width="8" height="8" transform="rotate(0,230,198)"/><path d="M 242 194v 8h 4a 4 4, 0, 0, 0, 0 -8" transform="rotate(90,246,198)"/><path d="M 282 194v 8h 4a 4 4, 0, 0, 0, 0 -8" transform="rotate(180,286,198)"/><path d="M 290 194v 8h 4a 4 4, 0, 0, 0, 0 -8" transform="rotate(0,294,198)"/><rect x="2" y="202" width="8" height="8" transform="rotate(0,6,206)"/><rect x="18" y="202" width="8" height="8" transform="rotate(0,22,206)"/><rect x="26" y="202" width="8" height="8" transform="rotate(0,30,206)"/><rect x="66" y="202" width="8" height="8" transform="rotate(0,70,206)"/><path d="M 74 202v 8h 8v -4a 4 4, 0, 0, 0, -4 -4" transform="rotate(90,78,206)"/><path d="M 114 202v 8h 4a 4 4, 0, 0, 0, 0 -8" transform="rotate(90,118,206)"/><path d="M 138 202v 8h 4a 4 4, 0, 0, 0, 0 -8" transform="rotate(-90,142,206)"/><rect x="154" y="202" width="8" height="8" transform="rotate(0,158,206)"/><rect x="162" y="202" width="8" height="8" transform="rotate(0,166,206)"/><circle cx="190" cy="206" r="4" transform="rotate(0,190,206)"/><rect x="202" y="202" width="8" height="8" transform="rotate(0,206,206)"/><path d="M 210 202v 8h 8v -4a 4 4, 0, 0, 0, -4 -4" transform="rotate(0,214,206)"/><rect x="226" y="202" width="8" height="8" transform="rotate(0,230,206)"/><path d="M 234 202v 8h 4a 4 4, 0, 0, 0, 0 -8" transform="rotate(0,238,206)"/><path d="M 250 202v 8h 8v -4a 4 4, 0, 0, 0, -4 -4" transform="rotate(-90,254,206)"/><path d="M 258 202v 8h 8v -4a 4 4, 0, 0, 0, -4 -4" transform="rotate(0,262,206)"/><rect x="2" y="210" width="8" height="8" transform="rotate(0,6,214)"/><rect x="10" y="210" width="8" height="8" transform="rotate(0,14,214)"/><rect x="18" y="210" width="8" height="8" transform="rotate(0,22,214)"/><path d="M 26 210v 8h 8v -4a 4 4, 0, 0, 0, -4 -4" transform="rotate(90,30,214)"/><circle cx="54" cy="214" r="4" transform="rotate(0,54,214)"/><path d="M 66 210v 8h 4a 4 4, 0, 0, 0, 0 -8" transform="rotate(90,70,214)"/><path d="M 98 210v 8h 8v -4a 4 4, 0, 0, 0, -4 -4" transform="rotate(-90,102,214)"/><path d="M 106 210v 8h 4a 4 4, 0, 0, 0, 0 -8" transform="rotate(0,110,214)"/><path d="M 130 210v 8h 8v -4a 4 4, 0, 0, 0, -4 -4" transform="rotate(-90,134,214)"/><rect x="138" y="210" width="8" height="8" transform="rotate(0,142,214)"/><rect x="146" y="210" width="8" height="8" transform="rotate(0,150,214)"/><rect x="154" y="210" width="8" height="8" transform="rotate(0,158,214)"/><path d="M 162 210v 8h 8v -4a 4 4, 0, 0, 0, -4 -4" transform="rotate(90,166,214)"/><path d="M 178 210v 8h 4a 4 4, 0, 0, 0, 0 -8" transform="rotate(-90,182,214)"/><path d="M 194 210v 8h 4a 4 4, 0, 0, 0, 0 -8" transform="rotate(180,198,214)"/><rect x="202" y="210" width="8" height="8" transform="rotate(0,206,214)"/><rect x="210" y="210" width="8" height="8" transform="rotate(0,214,214)"/><rect x="218" y="210" width="8" height="8" transform="rotate(0,222,214)"/><rect x="226" y="210" width="8" height="8" transform="rotate(0,230,214)"/><path d="M 242 210v 8h 4a 4 4, 0, 0, 0, 0 -8" transform="rotate(180,246,214)"/><rect x="250" y="210" width="8" height="8" transform="rotate(0,254,214)"/><path d="M 258 210v 8h 8v -4a 4 4, 0, 0, 0, -4 -4" transform="rotate(90,262,214)"/><path d="M 274 210v 8h 8v -4a 4 4, 0, 0, 0, -4 -4" transform="rotate(-90,278,214)"/><rect x="282" y="210" width="8" height="8" transform="rotate(0,286,214)"/><path d="M 290 210v 8h 8v -4a 4 4, 0, 0, 0, -4 -4" transform="rotate(0,294,214)"/><rect x="2" y="218" width="8" height="8" transform="rotate(0,6,222)"/><path d="M 18 218v 8h 4a 4 4, 0, 0, 0, 0 -8" transform="rotate(90,22,222)"/><path d="M 82 218v 8h 4a 4 4, 0, 0, 0, 0 -8" transform="rotate(-90,86,222)"/><rect x="98" y="218" width="8" height="8" transform="rotate(0,102,222)"/><rect x="130" y="218" width="8" height="8" transform="rotate(0,134,222)"/><path d="M 178 218v 8h 8v -4a 4 4, 0, 0, 0, -4 -4" transform="rotate(180,182,222)"/><path d="M 186 218v 8h 4a 4 4, 0, 0, 0, 0 -8" transform="rotate(0,190,222)"/><path d="M 210 218v 8h 8v -4a 4 4, 0, 0, 0, -4 -4" transform="rotate(180,214,222)"/><rect x="218" y="218" width="8" height="8" transform="rotate(0,222,222)"/><rect x="226" y="218" width="8" height="8" transform="rotate(0,230,222)"/><path d="M 234 218v 8h 8v -4a 4 4, 0, 0, 0, -4 -4" transform="rotate(0,238,222)"/><rect x="250" y="218" width="8" height="8" transform="rotate(0,254,222)"/><path d="M 266 218v 8h 8v -4a 4 4, 0, 0, 0, -4 -4" transform="rotate(-90,270,222)"/><rect x="274" y="218" width="8" height="8" transform="rotate(0,278,222)"/><rect x="282" y="218" width="8" height="8" transform="rotate(0,286,222)"/><path d="M 290 218v 8h 8v -4a 4 4, 0, 0, 0, -4 -4" transform="rotate(90,294,222)"/><path d="M 2 226v 8h 4a 4 4, 0, 0, 0, 0 -8" transform="rotate(90,6,230)"/><circle cx="30" cy="230" r="4" transform="rotate(0,30,230)"/><circle cx="54" cy="230" r="4" transform="rotate(0,54,230)"/><path d="M 66 226v 8h 8v -4a 4 4, 0, 0, 0, -4 -4" transform="rotate(-90,70,230)"/><rect x="74" y="226" width="8" height="8" transform="rotate(0,78,230)"/><rect x="82" y="226" width="8" height="8" transform="rotate(0,86,230)"/><rect x="98" y="226" width="8" height="8" transform="rotate(0,102,230)"/><path d="M 114 226v 8h 4a 4 4, 0, 0, 0, 0 -8" transform="rotate(180,118,230)"/><rect x="122" y="226" width="8" height="8" transform="rotate(0,126,230)"/><rect x="130" y="226" width="8" height="8" transform="rotate(0,134,230)"/><rect x="138" y="226" width="8" height="8" transform="rotate(0,142,230)"/><rect x="146" y="226" width="8" height="8" transform="rotate(0,150,230)"/><path d="M 154 226v 8h 4a 4 4, 0, 0, 0, 0 -8" transform="rotate(0,158,230)"/><path d="M 194 226v 8h 4a 4 4, 0, 0, 0, 0 -8" transform="rotate(180,198,230)"/><path d="M 202 226v 8h 4a 4 4, 0, 0, 0, 0 -8" transform="rotate(0,206,230)"/><path d="M 218 226v 8h 8v -4a 4 4, 0, 0, 0, -4 -4" transform="rotate(180,222,230)"/><rect x="226" y="226" width="8" height="8" transform="rotate(0,230,230)"/><rect x="234" y="226" width="8" height="8" transform="rotate(0,238,230)"/><rect x="242" y="226" width="8" height="8" transform="rotate(0,246,230)"/><rect x="250" y="226" width="8" height="8" transform="rotate(0,254,230)"/><rect x="258" y="226" width="8" height="8" transform="rotate(0,262,230)"/><rect x="266" y="226" width="8" height="8" transform="rotate(0,270,230)"/><rect x="274" y="226" width="8" height="8" transform="rotate(0,278,230)"/><rect x="282" y="226" width="8" height="8" transform="rotate(0,286,230)"/><path d="M 66 234v 8h 4a 4 4, 0, 0, 0, 0 -8" transform="rotate(90,70,238)"/><path d="M 82 234v 8h 4a 4 4, 0, 0, 0, 0 -8" transform="rotate(90,86,238)"/><rect x="98" y="234" width="8" height="8" transform="rotate(0,102,238)"/><path d="M 130 234v 8h 8v -4a 4 4, 0, 0, 0, -4 -4" transform="rotate(180,134,238)"/><rect x="138" y="234" width="8" height="8" transform="rotate(0,142,238)"/><rect x="146" y="234" width="8" height="8" transform="rotate(0,150,238)"/><circle cx="166" cy="238" r="4" transform="rotate(0,166,238)"/><circle cx="182" cy="238" r="4" transform="rotate(0,182,238)"/><rect x="226" y="234" width="8" height="8" transform="rotate(0,230,238)"/><rect x="258" y="234" width="8" height="8" transform="rotate(0,262,238)"/><rect x="266" y="234" width="8" height="8" transform="rotate(0,270,238)"/><rect x="274" y="234" width="8" height="8" transform="rotate(0,278,238)"/><path d="M 282 234v 8h 8v -4a 4 4, 0, 0, 0, -4 -4" transform="rotate(90,286,238)"/><path d="M 90 242v 8h 8v -4a 4 4, 0, 0, 0, -4 -4" transform="rotate(-90,94,246)"/><path d="M 98 242v 8h 8v -4a 4 4, 0, 0, 0, -4 -4" transform="rotate(90,102,246)"/><circle cx="118" cy="246" r="4" transform="rotate(0,118,246)"/><rect x="138" y="242" width="8" height="8" transform="rotate(0,142,246)"/><rect x="146" y="242" width="8" height="8" transform="rotate(0,150,246)"/><path d="M 154 242v 8h 8v -4a 4 4, 0, 0, 0, -4 -4" transform="rotate(0,158,246)"/><circle cx="190" cy="246" r="4" transform="rotate(0,190,246)"/><path d="M 210 242v 8h 4a 4 4, 0, 0, 0, 0 -8" transform="rotate(-90,214,246)"/><rect x="226" y="242" width="8" height="8" transform="rotate(0,230,246)"/><circle cx="246" cy="246" r="4" transform="rotate(0,246,246)"/><rect x="258" y="242" width="8" height="8" transform="rotate(0,262,246)"/><rect x="266" y="242" width="8" height="8" transform="rotate(0,270,246)"/><path d="M 274 242v 8h 8v -4a 4 4, 0, 0, 0, -4 -4" transform="rotate(90,278,246)"/><path d="M 290 242v 8h 4a 4 4, 0, 0, 0, 0 -8" transform="rotate(-90,294,246)"/><path d="M 66 250v 8h 4a 4 4, 0, 0, 0, 0 -8" transform="rotate(-90,70,254)"/><rect x="90" y="250" width="8" height="8" transform="rotate(0,94,254)"/><path d="M 122 250v 8h 4a 4 4, 0, 0, 0, 0 -8" transform="rotate(180,126,254)"/><rect x="130" y="250" width="8" height="8" transform="rotate(0,134,254)"/><rect x="138" y="250" width="8" height="8" transform="rotate(0,142,254)"/><rect x="154" y="250" width="8" height="8" transform="rotate(0,158,254)"/><path d="M 162 250v 8h 4a 4 4, 0, 0, 0, 0 -8" transform="rotate(0,166,254)"/><path d="M 194 250v 8h 8v -4a 4 4, 0, 0, 0, -4 -4" transform="rotate(-90,198,254)"/><rect x="202" y="250" width="8" height="8" transform="rotate(0,206,254)"/><rect x="210" y="250" width="8" height="8" transform="rotate(0,214,254)"/><rect x="218" y="250" width="8" height="8" transform="rotate(0,222,254)"/><rect x="226" y="250" width="8" height="8" transform="rotate(0,230,254)"/><rect x="258" y="250" width="8" height="8" transform="rotate(0,262,254)"/><path d="M 266 250v 8h 8v -4a 4 4, 0, 0, 0, -4 -4" transform="rotate(90,270,254)"/><path d="M 282 250v 8h 4a 4 4, 0, 0, 0, 0 -8" transform="rotate(180,286,254)"/><rect x="290" y="250" width="8" height="8" transform="rotate(0,294,254)"/><rect x="66" y="258" width="8" height="8" transform="rotate(0,70,262)"/><path d="M 74 258v 8h 4a 4 4, 0, 0, 0, 0 -8" transform="rotate(0,78,262)"/><path d="M 90 258v 8h 8v -4a 4 4, 0, 0, 0, -4 -4" transform="rotate(180,94,262)"/><path d="M 98 258v 8h 8v -4a 4 4, 0, 0, 0, -4 -4" transform="rotate(0,102,262)"/><rect x="138" y="258" width="8" height="8" transform="rotate(0,142,262)"/><path d="M 154 258v 8h 4a 4 4, 0, 0, 0, 0 -8" transform="rotate(90,158,262)"/><path d="M 170 258v 8h 4a 4 4, 0, 0, 0, 0 -8" transform="rotate(-90,174,262)"/><path d="M 186 258v 8h 4a 4 4, 0, 0, 0, 0 -8" transform="rotate(180,190,262)"/><path d="M 194 258v 8h 8v -4a 4 4, 0, 0, 0, -4 -4" transform="rotate(90,198,262)"/><rect x="218" y="258" width="8" height="8" transform="rotate(0,222,262)"/><rect x="226" y="258" width="8" height="8" transform="rotate(0,230,262)"/><rect x="234" y="258" width="8" height="8" transform="rotate(0,238,262)"/><rect x="242" y="258" width="8" height="8" transform="rotate(0,246,262)"/><rect x="250" y="258" width="8" height="8" transform="rotate(0,254,262)"/><path d="M 258 258v 8h 8v -4a 4 4, 0, 0, 0, -4 -4" transform="rotate(90,262,262)"/><path d="M 290 258v 8h 4a 4 4, 0, 0, 0, 0 -8" transform="rotate(90,294,262)"/><path d="M 66 266v 8h 4a 4 4, 0, 0, 0, 0 -8" transform="rotate(90,70,270)"/><circle cx="86" cy="270" r="4" transform="rotate(0,86,270)"/><path d="M 98 266v 8h 8v -4a 4 4, 0, 0, 0, -4 -4" transform="rotate(180,102,270)"/><rect x="106" y="266" width="8" height="8" transform="rotate(0,110,270)"/><path d="M 114 266v 8h 8v -4a 4 4, 0, 0, 0, -4 -4" transform="rotate(0,118,270)"/><rect x="138" y="266" width="8" height="8" transform="rotate(0,142,270)"/><path d="M 162 266v 8h 8v -4a 4 4, 0, 0, 0, -4 -4" transform="rotate(-90,166,270)"/><path d="M 170 266v 8h 8v -4a 4 4, 0, 0, 0, -4 -4" transform="rotate(90,174,270)"/><path d="M 202 266v 8h 8v -4a 4 4, 0, 0, 0, -4 -4" transform="rotate(-90,206,270)"/><rect x="210" y="266" width="8" height="8" transform="rotate(0,214,270)"/><rect x="218" y="266" width="8" height="8" transform="rotate(0,222,270)"/><path d="M 226 266v 8h 8v -4a 4 4, 0, 0, 0, -4 -4" transform="rotate(90,230,270)"/><path d="M 242 266v 8h 4a 4 4, 0, 0, 0, 0 -8" transform="rotate(90,246,270)"/><path d="M 282 266v 8h 4a 4 4, 0, 0, 0, 0 -8" transform="rotate(-90,286,270)"/><path d="M 74 274v 8h 4a 4 4, 0, 0, 0, 0 -8" transform="rotate(-90,78,278)"/><rect x="106" y="274" width="8" height="8" transform="rotate(0,110,278)"/><rect x="114" y="274" width="8" height="8" transform="rotate(0,118,278)"/><rect x="122" y="274" width="8" height="8" transform="rotate(0,126,278)"/><rect x="130" y="274" width="8" height="8" transform="rotate(0,134,278)"/><path d="M 138 274v 8h 8v -4a 4 4, 0, 0, 0, -4 -4" transform="rotate(90,142,278)"/><rect x="162" y="274" width="8" height="8" transform="rotate(0,166,278)"/><path d="M 178 274v 8h 4a 4 4, 0, 0, 0, 0 -8" transform="rotate(180,182,278)"/><rect x="186" y="274" width="8" height="8" transform="rotate(0,190,278)"/><rect x="194" y="274" width="8" height="8" transform="rotate(0,198,278)"/><path d="M 202 274v 8h 8v -4a 4 4, 0, 0, 0, -4 -4" transform="rotate(90,206,278)"/><path d="M 218 274v 8h 4a 4 4, 0, 0, 0, 0 -8" transform="rotate(90,222,278)"/><path d="M 250 274v 8h 4a 4 4, 0, 0, 0, 0 -8" transform="rotate(180,254,278)"/><rect x="258" y="274" width="8" height="8" transform="rotate(0,262,278)"/><path d="M 266 274v 8h 8v -4a 4 4, 0, 0, 0, -4 -4" transform="rotate(0,270,278)"/><rect x="282" y="274" width="8" height="8" transform="rotate(0,286,278)"/><path d="M 290 274v 8h 8v -4a 4 4, 0, 0, 0, -4 -4" transform="rotate(0,294,278)"/><path d="M 66 282v 8h 4a 4 4, 0, 0, 0, 0 -8" transform="rotate(180,70,286)"/><rect x="74" y="282" width="8" height="8" transform="rotate(0,78,286)"/><path d="M 82 282v 8h 4a 4 4, 0, 0, 0, 0 -8" transform="rotate(0,86,286)"/><rect x="106" y="282" width="8" height="8" transform="rotate(0,110,286)"/><rect x="114" y="282" width="8" height="8" transform="rotate(0,118,286)"/><path d="M 122 282v 8h 8v -4a 4 4, 0, 0, 0, -4 -4" transform="rotate(90,126,286)"/><circle cx="150" cy="286" r="4" transform="rotate(0,150,286)"/><path d="M 162 282v 8h 4a 4 4, 0, 0, 0, 0 -8" transform="rotate(90,166,286)"/><rect x="194" y="282" width="8" height="8" transform="rotate(0,198,286)"/><circle cx="214" cy="286" r="4" transform="rotate(0,214,286)"/><path d="M 234 282v 8h 4a 4 4, 0, 0, 0, 0 -8" transform="rotate(180,238,286)"/><path d="M 242 282v 8h 8v -4a 4 4, 0, 0, 0, -4 -4" transform="rotate(0,246,286)"/><path d="M 266 282v 8h 8v -4a 4 4, 0, 0, 0, -4 -4" transform="rotate(180,270,286)"/><rect x="274" y="282" width="8" height="8" transform="rotate(0,278,286)"/><rect x="282" y="282" width="8" height="8" transform="rotate(0,286,286)"/><rect x="290" y="282" width="8" height="8" transform="rotate(0,294,286)"/><path d="M 74 290v 8h 4a 4 4, 0, 0, 0, 0 -8" transform="rotate(90,78,294)"/><circle cx="94" cy="294" r="4" transform="rotate(0,94,294)"/><path d="M 106 290v 8h 4a 4 4, 0, 0, 0, 0 -8" transform="rotate(90,110,294)"/><circle cx="134" cy="294" r="4" transform="rotate(0,134,294)"/><circle cx="158" cy="294" r="4" transform="rotate(0,158,294)"/><path d="M 194 290v 8h 4a 4 4, 0, 0, 0, 0 -8" transform="rotate(90,198,294)"/><circle cx="230" cy="294" r="4" transform="rotate(0,230,294)"/><path d="M 242 290v 8h 4a 4 4, 0, 0, 0, 0 -8" transform="rotate(90,246,294)"/><circle cx="262" cy="294" r="4" transform="rotate(0,262,294)"/><path d="M 290 290v 8h 4a 4 4, 0, 0, 0, 0 -8" transform="rotate(90,294,294)"/></clipPath><clipPath id="clip-path-corners-square-color-0-0-0"><path clip-rule="evenodd" d="M 2 22v 16a 20 20, 0, 0, 0, 20 20h 16a 20 20, 0, 0, 0, 20 -20v -16a 20 20, 0, 0, 0, -20 -20h -16a 20 20, 0, 0, 0, -20 20M 22 10h 16a 12 12, 0, 0, 1, 12 12v 16a 12 12, 0, 0, 1, -12 12h -16a 12 12, 0, 0, 1, -12 -12v -16a 12 12, 0, 0, 1, 12 -12" transform="rotate(0,30,30)"/><path d="M 18 18v 8h 8v -4a 4 4, 0, 0, 0, -4 -4" transform="rotate(-90,22,22)"/><rect x="26" y="18" width="8" height="8" transform="rotate(0,30,22)"/><path d="M 34 18v 8h 8v -4a 4 4, 0, 0, 0, -4 -4" transform="rotate(0,38,22)"/><rect x="18" y="26" width="8" height="8" transform="rotate(0,22,30)"/><rect x="26" y="26" width="8" height="8" transform="rotate(0,30,30)"/><rect x="34" y="26" width="8" height="8" transform="rotate(0,38,30)"/><path d="M 18 34v 8h 8v -4a 4 4, 0, 0, 0, -4 -4" transform="rotate(180,22,38)"/><rect x="26" y="34" width="8" height="8" transform="rotate(0,30,38)"/><path d="M 34 34v 8h 8v -4a 4 4, 0, 0, 0, -4 -4" transform="rotate(90,38,38)"/></clipPath><clipPath id="clip-path-corners-square-color-1-0-0"><path clip-rule="evenodd" d="M 242 22v 16a 20 20, 0, 0, 0, 20 20h 16a 20 20, 0, 0, 0, 20 -20v -16a 20 20, 0, 0, 0, -20 -20h -16a 20 20, 0, 0, 0, -20 20M 262 10h 16a 12 12, 0, 0, 1, 12 12v 16a 12 12, 0, 0, 1, -12 12h -16a 12 12, 0, 0, 1, -12 -12v -16a 12 12, 0, 0, 1, 12 -12" transform="rotate(90,270,30)"/><path d="M 258 18v 8h 8v -4a 4 4, 0, 0, 0, -4 -4" transform="rotate(-90,262,22)"/><rect x="266" y="18" width="8" height="8" transform="rotate(0,270,22)"/><path d="M 274 18v 8h 8v -4a 4 4, 0, 0, 0, -4 -4" transform="rotate(0,278,22)"/><rect x="258" y="26" width="8" height="8" transform="rotate(0,262,30)"/><rect x="266" y="26" width="8" height="8" transform="rotate(0,270,30)"/><rect x="274" y="26" width="8" height="8" transform="rotate(0,278,30)"/><path d="M 258 34v 8h 8v -4a 4 4, 0, 0, 0, -4 -4" transform="rotate(180,262,38)"/><rect x="266" y="34" width="8" height="8" transform="rotate(0,270,38)"/><path d="M 274 34v 8h 8v -4a 4 4, 0, 0, 0, -4 -4" transform="rotate(90,278,38)"/></clipPath><clipPath id="clip-path-corners-square-color-0-1-0"><path clip-rule="evenodd" d="M 2 262v 16a 20 20, 0, 0, 0, 20 20h 16a 20 20, 0, 0, 0, 20 -20v -16a 20 20, 0, 0, 0, -20 -20h -16a 20 20, 0, 0, 0, -20 20M 22 250h 16a 12 12, 0, 0, 1, 12 12v 16a 12 12, 0, 0, 1, -12 12h -16a 12 12, 0, 0, 1, -12 -12v -16a 12 12, 0, 0, 1, 12 -12" transform="rotate(-90,30,270)"/><path d="M 18 258v 8h 8v -4a 4 4, 0, 0, 0, -4 -4" transform="rotate(-90,22,262)"/><rect x="26" y="258" width="8" height="8" transform="rotate(0,30,262)"/><path d="M 34 258v 8h 8v -4a 4 4, 0, 0, 0, -4 -4" transform="rotate(0,38,262)"/><rect x="18" y="266" width="8" height="8" transform="rotate(0,22,270)"/><rect x="26" y="266" width="8" height="8" transform="rotate(0,30,270)"/><rect x="34" y="266" width="8" height="8" transform="rotate(0,38,270)"/><path d="M 18 274v 8h 8v -4a 4 4, 0, 0, 0, -4 -4" transform="rotate(180,22,278)"/><rect x="26" y="274" width="8" height="8" transform="rotate(0,30,278)"/><path d="M 34 274v 8h 8v -4a 4 4, 0, 0, 0, -4 -4" transform="rotate(90,38,278)"/></clipPath></defs><rect x="0" y="0" height="300" width="300" clip-path="url('#clip-path-background-color-0')" fill="#ffffffff"/><rect x="0" y="0" height="300" width="300" clip-path="url('#clip-path-dot-color-0')" fill="#2c3ceeff"/><rect x="2" y="2" height="56" width="56" clip-path="url('#clip-path-corners-square-color-0-0-0')" fill="#2c3ceeff"/><rect x="242" y="2" height="56" width="56" clip-path="url('#clip-path-corners-square-color-1-0-0')" fill="#2c3ceeff"/><rect x="2" y="242" height="56" width="56" clip-path="url('#clip-path-corners-square-color-0-1-0')" fill="#2c3ceeff"/></svg>